<svg width="40" height="40" viewBox="0 0 40 40" fill="none" xmlns="http://www.w3.org/2000/svg">
<path d="M31.2188 15.3912V15.7996L31.6189 15.8812C33.1721 16.1976 34.3438 17.5752 34.3438 19.2188V36.0938C34.3438 37.9715 32.8153 39.5 30.9375 39.5H9.0625C7.18471 39.5 5.65625 37.9715 5.65625 36.0938V29.9219C5.65625 29.7665 5.78212 29.6406 5.9375 29.6406C6.09288 29.6406 6.21875 29.7665 6.21875 29.9219V36.0938C6.21875 37.6623 7.49394 38.9375 9.0625 38.9375H30.1562H30.6562V38.4375V33.5938C30.6562 33.4384 30.7821 33.3125 30.9375 33.3125C31.0929 33.3125 31.2188 33.4384 31.2188 33.5938V38.3032V39.0111L31.8859 38.7745C32.9879 38.3836 33.7812 37.3311 33.7812 36.0938V19.2188C33.7812 17.6502 32.5061 16.375 30.9375 16.375H9.0625C7.49394 16.375 6.21875 17.6502 6.21875 19.2188V23.6539C6.21875 23.8092 6.09288 23.9351 5.9375 23.9351C5.78212 23.9351 5.65625 23.8092 5.65625 23.6539V19.2188C5.65625 17.5752 6.82795 16.1976 8.38107 15.8812L8.78125 15.7996V15.3912V11.7188C8.78125 5.5331 13.8144 0.5 20 0.5C26.1856 0.5 31.2188 5.5331 31.2188 11.7188V15.3912ZM13.5625 15.3125V15.8125H14.0625H25.9375H26.4375V15.3125V11.7188C26.4375 8.16868 23.5501 5.28125 20 5.28125C16.4499 5.28125 13.5625 8.16868 13.5625 11.7188V15.3125ZM27 15.3125V15.8125H27.5H30.1562H30.6562V15.3125V11.7188C30.6562 5.84233 25.8764 1.0625 20 1.0625C14.1236 1.0625 9.34375 5.84233 9.34375 11.7188V15.3125V15.8125H9.84375H12.5H13V15.3125V11.7188C13 7.85946 16.1407 4.71875 20 4.71875C23.8593 4.71875 27 7.85946 27 11.7188V15.3125Z" fill="#C3D4C2" stroke="#E6E7E1"/>
<path d="M6.13631 26.9557L6.13594 26.9561C6.08484 27.0073 6.0106 27.0382 5.9375 27.0382C5.8644 27.0382 5.79016 27.0073 5.73906 26.9561L5.73869 26.9557C5.68703 26.9041 5.65625 26.8298 5.65625 26.7569C5.65625 26.6842 5.68716 26.6098 5.73831 26.5588L5.73906 26.558C5.79051 26.5065 5.8649 26.4757 5.9375 26.4757C6.0101 26.4757 6.08449 26.5065 6.13594 26.558L6.13669 26.5588C6.18784 26.6098 6.21875 26.6842 6.21875 26.7569C6.21875 26.8298 6.18797 26.9041 6.13631 26.9557Z" fill="#C3D4C2" stroke="#E6E7E1"/>
<path d="M22.0678 28.872L21.8438 29.0203V29.2889V33.4375C21.8438 34.4538 21.0163 35.2812 20.0001 35.2812C18.9838 35.2812 18.1563 34.4538 18.1563 33.4375V29.2755V29.0088L17.9348 28.8602C16.9111 28.1738 16.2914 27.0279 16.2914 25.7745C16.2914 23.7246 17.9599 22.0558 20.0101 22.0558C22.06 22.0558 23.7289 23.7246 23.7289 25.7745C23.7289 27.0373 23.1023 28.1872 22.0678 28.872ZM21.4353 28.5905L21.4355 28.5904C22.5016 28.0492 23.1664 26.9693 23.1664 25.7745C23.1664 24.0335 21.7508 22.6183 20.0101 22.6183C18.2691 22.6183 16.8539 24.0336 16.8539 25.7745C16.8539 26.9607 17.5112 28.0371 18.5665 28.581L18.5665 28.5811C18.6601 28.6293 18.7188 28.7257 18.7188 28.8309V33.4375C18.7188 34.1446 19.293 34.7188 20.0001 34.7188C20.7071 34.7188 21.2813 34.1446 21.2813 33.4375V28.8412C21.2813 28.7351 21.3408 28.6384 21.4353 28.5905Z" fill="#C3D4C2" stroke="#E6E7E1"/>
<path d="M31.1363 30.5894L31.1363 30.5894C31.0845 30.6412 31.0108 30.6719 30.9375 30.6719C30.8648 30.6719 30.7903 30.641 30.7387 30.5894L30.7387 30.5894C30.6871 30.5379 30.6562 30.4633 30.6562 30.3906C30.6562 30.318 30.6871 30.2434 30.7387 30.1918L30.402 29.8551L30.7387 30.1918C30.7903 30.1402 30.8648 30.1094 30.9375 30.1094C31.0108 30.1094 31.0845 30.14 31.1363 30.1918L31.1363 30.1918C31.1881 30.2436 31.2188 30.3174 31.2188 30.3906C31.2188 30.4639 31.1881 30.5376 31.1363 30.5894Z" fill="#C3D4C2" stroke="#E6E7E1"/>
</svg>
