<svg width="40" height="40" viewBox="0 0 40 40" fill="none" xmlns="http://www.w3.org/2000/svg">
<path d="M6.80737 14.9003C6.80737 14.7455 6.9333 14.6194 7.0886 14.6194C7.2439 14.6194 7.36982 14.7455 7.36982 14.9003C7.36982 15.0554 7.24364 15.1815 7.0886 15.1815C6.93355 15.1815 6.80737 15.0554 6.80737 14.9003Z" fill="#C3D5C2" stroke="#E6E7E1" stroke-width="0.999999"/>
<path d="M27.7188 31.7397L28.0724 31.3862L31.3863 28.0723L31.7399 27.7187L32.0934 28.0723L38.1034 34.0828L38.1036 34.083L27.7188 31.7397ZM27.7188 31.7397L28.0724 32.0933L34.0827 38.1033L27.7188 31.7397ZM4.87279 4.87279C-0.20776 9.95302 -0.207111 18.1761 4.87281 23.2557C9.88233 28.2655 18.1033 28.4087 23.2557 23.2557C23.2558 23.2557 23.2558 23.2557 23.2558 23.2557M4.87279 4.87279L23.2558 23.2557M4.87279 4.87279C4.8728 4.87278 4.8728 4.87277 4.87281 4.87277C9.95242 -0.20712 18.1755 -0.207755 23.2558 4.87279C28.324 9.94074 28.3501 18.162 23.2558 23.2557M4.87279 4.87279L23.2558 23.2557M28.6244 23.8077L28.6247 23.808L38.5009 33.6851L38.501 33.6852C39.8332 35.0164 39.8327 37.1703 38.501 38.5009L38.5007 38.5012C37.1697 39.8333 35.016 39.8327 33.685 38.5008L33.6849 38.5007L23.8081 28.6249C23.8081 28.6249 23.8081 28.6249 23.8081 28.6249C23.6984 28.5151 23.6984 28.3367 23.8081 28.227L24.3602 27.6749L24.7138 27.3214L24.3602 26.9678L22.5652 25.1728L22.2658 24.8735L21.9212 25.1193C16.5529 28.9486 9.16858 28.347 4.47517 23.6533L4.47515 23.6533C-0.825488 18.353 -0.824615 9.77461 4.47515 4.47516L4.47517 4.47514C9.77551 -0.825478 18.3536 -0.824619 23.6534 4.47515L23.6534 4.47516C28.3585 9.17993 28.9391 16.5672 25.1194 21.9214L24.8735 22.2661L25.1729 22.5654L26.968 24.3601L27.3215 24.7136L27.675 24.3601L28.2271 23.8081C28.2701 23.7651 28.3177 23.7446 28.359 23.7343C28.3797 23.7291 28.397 23.7271 28.4076 23.7263C28.4127 23.7259 28.4163 23.7258 28.4186 23.7258L28.4249 23.7257L28.4305 23.7257C28.5036 23.7268 28.5733 23.7565 28.6244 23.8077ZM24.7578 26.5702L25.1113 26.9237L25.4649 26.5702L26.5703 25.4652L26.9239 25.1117L26.5703 24.7581L24.8976 23.0854L24.5245 22.7123L24.172 23.1049C24.0029 23.2933 23.8303 23.4767 23.6537 23.653L23.6531 23.6536C23.4768 23.8302 23.2935 24.0027 23.105 24.1717L22.7118 24.5241L23.0852 24.8975L24.7578 26.5702ZM28.7795 24.7581L28.4259 24.4045L28.0724 24.7581L24.7581 28.0723L24.4046 28.4258L24.7582 28.7794L26.9677 30.9886L27.3212 31.3421L27.6747 30.9885L30.9887 27.6746L31.3422 27.3211L30.9887 26.9676L28.7795 24.7581ZM38.1032 38.1034C38.1033 38.1034 38.1034 38.1033 38.1034 38.1032L37.7497 37.7499L38.1031 38.1036C38.1031 38.1035 38.1032 38.1035 38.1032 38.1034Z" fill="#C3D5C2" stroke="#E6E7E1" stroke-width="0.999999"/>
<path d="M6.68353 6.68384C10.7622 2.60524 17.3667 2.60751 21.4437 6.68449C25.5123 10.7531 25.5121 17.3747 21.4431 21.444C21.443 21.444 21.443 21.444 21.443 21.444L6.68353 6.68384ZM6.68353 6.68384C6.68351 6.68386 6.6835 6.68387 6.68349 6.68388M6.68353 6.68384L6.68349 6.68388M6.68349 6.68388C2.61543 10.7529 2.61542 17.3748 6.68354 21.4441L6.68349 6.68388ZM7.08106 21.0463L7.08114 21.0464C10.941 24.9059 17.1865 24.905 21.0454 21.0461C24.8957 17.1958 24.8961 10.9322 21.046 7.08214C17.1877 3.2235 10.9382 3.22446 7.08114 7.08119L7.08106 7.08127C3.23169 10.9319 3.23169 17.1957 7.08106 21.0463Z" fill="#C3D5C2" stroke="#E6E7E1" stroke-width="0.999999"/>
<path d="M8.15027 12.0433L7.67686 11.8824C7.6269 12.0294 7.46719 12.1083 7.32002 12.0584L7.31992 12.0583C7.17319 12.0086 7.09435 11.849 7.14427 11.7019L7.14428 11.7019C7.50518 10.638 8.09288 9.69437 8.89353 8.89371L8.89364 8.8936C10.2737 7.51265 12.1081 6.75287 14.0636 6.75287C14.219 6.75287 14.3449 6.87874 14.3449 7.03412C14.3449 7.1895 14.219 7.31537 14.0636 7.31537C12.2607 7.31537 10.5642 8.01765 9.29111 9.29109L9.29107 9.29112C8.55382 10.0287 8.00957 10.9014 7.67676 11.8827L8.15027 12.0433ZM8.15027 12.0433C8.45819 11.1354 8.96112 10.3285 9.64471 9.64459L8.53998 8.54016C7.68549 9.39465 7.05652 10.4042 6.67078 11.5413C6.53223 11.9496 6.75074 12.3933 7.15937 12.5319C7.56861 12.6707 8.01172 12.451 8.15027 12.0433Z" fill="#C3D5C2" stroke="#E6E7E1" stroke-width="0.999999"/>
</svg>
