<svg width="40" height="40" viewBox="0 0 40 40" fill="none" xmlns="http://www.w3.org/2000/svg">
<path d="M15.7476 2.66163L15.7474 2.66193C15.6896 2.74096 15.7066 2.85224 15.7863 2.91057L15.7476 2.66163ZM15.7476 2.66163C16.7359 1.30813 18.3266 0.5 19.9997 0.5C22.6014 0.5 24.8426 2.44255 25.2094 5.01335C25.2231 5.10972 25.1565 5.19958 25.0599 5.21438C25.0483 5.21586 25.0389 5.21636 25.0324 5.21636C24.9459 5.21636 24.8695 5.15176 24.8568 5.06308C24.514 2.66256 22.4273 0.855996 19.9995 0.855996C18.4379 0.855996 16.9569 1.60936 16.0346 2.87141L16.0342 2.8719M15.7476 2.66163L16.0342 2.8719M16.0342 2.8719C15.9768 2.95069 15.8651 2.96811 15.7863 2.91062L16.0342 2.8719Z" fill="#C3D4C2" stroke="#E6E7E1"/>
<path d="M35.0675 12.7895L35.0677 12.7897C35.1004 12.8443 35.1014 12.913 35.0698 12.9689C35.038 13.025 34.979 13.0594 34.9149 13.0594H5.08439C5.02011 13.0594 4.96117 13.0249 4.92973 12.9693C4.89796 12.9131 4.89887 12.8445 4.93183 12.7894C4.93184 12.7894 4.93186 12.7894 4.93188 12.7894L6.96567 9.39964L6.96592 9.39921C6.99768 9.34616 7.05518 9.31328 7.11829 9.31328H8.22005C8.31811 9.31328 8.39795 9.39311 8.39795 9.49118C8.39795 9.58924 8.31811 9.66908 8.22005 9.66908H7.50203H7.21893L7.07328 9.91183L5.85294 11.9457L5.3986 12.703H6.28169H33.7176H34.6007L34.1464 11.9457L32.926 9.91183L32.7804 9.66908H32.4973H30.9319C30.8339 9.66908 30.754 9.58924 30.754 9.49118C30.754 9.39311 30.8339 9.31328 30.9319 9.31328H32.881C32.9441 9.31328 33.0016 9.34616 33.0334 9.39922L33.0336 9.39964L35.0675 12.7895Z" fill="#C3D4C2" stroke="#E6E7E1"/>
<path d="M31.6919 6.5445L31.6924 6.54524C31.7169 6.58466 31.7248 6.63253 31.7141 6.678L31.7139 6.67901L30.3146 12.6611L30.3144 12.662C30.2958 12.742 30.2237 12.7984 30.1424 12.7984C30.129 12.7984 30.1152 12.7969 30.1003 12.7935C30.005 12.7711 29.9459 12.6757 29.9682 12.5804L29.9682 12.5802L31.213 7.25812L31.3269 6.77127L30.84 6.65739L22.9184 4.80444L22.4315 4.69057L22.3176 5.17738L21.775 7.49629L21.7749 7.49671C21.7527 7.59192 21.6571 7.65153 21.5614 7.6291L21.5608 7.62897C21.4653 7.60671 21.4061 7.51126 21.4284 7.41584L21.4285 7.41565L22.1254 4.43631L22.1255 4.43614C22.1361 4.39052 22.1644 4.35078 22.2044 4.32564C22.2456 4.30045 22.2941 4.29297 22.3388 4.30347L22.3392 4.30359L31.5814 6.4652L31.5815 6.46523C31.6275 6.47598 31.667 6.50433 31.6919 6.5445ZM31.6952 5.97834L22.4531 3.81673L30.2393 7.03038L30.7261 7.14425L30.6123 7.63111L29.4814 12.4663C29.396 12.8308 29.6224 13.1955 29.9871 13.2805C30.0393 13.2926 30.0912 13.2984 30.1424 13.2984C30.4503 13.2984 30.7289 13.0874 30.8014 12.775L32.2007 6.79289C32.242 6.6179 32.2118 6.43358 32.1169 6.28104C32.022 6.1279 31.8704 6.01925 31.6952 5.97834Z" fill="#C3D4C2" stroke="#E6E7E1"/>
<path d="M8.9346 12.7718L7.98423 4.73068L7.92555 4.23414L8.42209 4.17545L18.415 2.99444L18.9115 2.93576L18.9702 3.43231L19.5081 7.98354C19.5194 8.07947 19.6051 8.15047 19.7073 8.13959C19.8034 8.12765 19.8729 8.03999 19.8617 7.94243L8.9346 12.7718ZM8.9346 12.7718C8.9346 12.7718 8.93461 12.7718 8.93461 12.7718C8.94603 12.8694 8.87684 12.9573 8.78055 12.9697C8.76902 12.9709 8.76125 12.9712 8.75706 12.9712C8.66875 12.9712 8.59187 12.9045 8.58106 12.8137C8.58105 12.8137 8.58105 12.8137 8.58105 12.8136L7.55122 4.09977C7.55122 4.09974 7.55122 4.09971 7.55121 4.09968C7.53972 4.00185 7.60951 3.91353 7.70696 3.90191C7.70699 3.90191 7.70703 3.9019 7.70707 3.9019L19.0458 2.56167C19.0458 2.56166 19.0459 2.56166 19.0459 2.56165C19.0932 2.55614 19.1397 2.56921 19.1777 2.5991C19.2144 2.62796 19.2384 2.67055 19.2439 2.71751L19.2439 2.71766L19.8616 7.94209L8.9346 12.7718Z" fill="#C3D4C2" stroke="#E6E7E1"/>
<path d="M12.7519 9.64006L12.7517 9.64011C12.6567 9.66292 12.5975 9.75879 12.6204 9.85475C12.6204 9.85478 12.6204 9.85481 12.6204 9.85484C12.6204 9.85487 12.6204 9.85491 12.6204 9.85494L13.2929 12.6518L13.293 12.6521C13.316 12.748 13.4121 12.8063 13.5068 12.7834L13.5076 12.7832C13.6027 12.7604 13.6619 12.6644 13.6389 12.5684C13.6389 12.5684 13.6389 12.5684 13.6389 12.5684L13.1247 10.4306L13.0077 9.94443L13.4939 9.82753L23.0973 7.51835L23.5835 7.40145L23.7004 7.88758L24.8875 12.8241L24.8876 12.8245C24.9068 12.9046 24.9791 12.9604 25.06 12.9604C25.0734 12.9604 25.0872 12.9589 25.1019 12.9554L25.1024 12.9553C25.1978 12.9323 25.2568 12.8363 25.2339 12.7406L12.7519 9.64006ZM12.7519 9.64006L23.6721 7.01382C23.6722 7.01379 23.6724 7.01375 23.6726 7.01371C23.7201 7.00257 23.7684 7.01048 23.8086 7.03466M12.7519 9.64006L23.8086 7.03466M23.8086 7.03466C23.8484 7.05936 23.8772 7.09903 23.8882 7.14457L23.8086 7.03466ZM23.8883 7.14489L25.2339 12.7404L23.8883 7.14489Z" fill="#C3D4C2" stroke="#E6E7E1"/>
<path d="M3.55077 39.3129L3.55077 39.313C3.54827 39.3616 3.56594 39.4094 3.59947 39.4447L3.23694 39.7891L3.59895 39.4442C3.63313 39.48 3.68006 39.5 3.72853 39.5H36.2709C36.319 39.5 36.3661 39.4803 36.4009 39.4443C36.4341 39.409 36.4516 39.3613 36.4492 39.3124L35.0932 12.8726L35.0932 12.8723M3.55077 39.3129L4.40743 12.8467C4.4261 12.4862 4.72363 12.2036 5.08473 12.2036H34.9153C35.2764 12.2036 35.5739 12.4864 35.5926 12.8467L35.0932 12.8723M3.55077 39.3129L4.90676 12.8726C4.90676 12.8725 4.90676 12.8725 4.90676 12.8725M3.55077 39.3129L4.90676 12.8725M35.0932 12.8723C35.0882 12.7777 35.01 12.7036 34.9153 12.7036H5.08473C4.98982 12.7036 4.91172 12.7777 4.90676 12.8725M35.0932 12.8723L4.90676 12.8725M3.94264 38.6184L3.91569 39.144H4.44199H35.5572H36.0835L36.0565 38.6184L34.7701 13.5337L34.7457 13.0594H34.2707H5.72847H5.25345L5.22912 13.5337L3.94264 38.6184Z" fill="#C3D4C2" stroke="#E6E7E1"/>
<path d="M23.5505 16.949C23.5505 16.1036 24.239 15.4152 25.0844 15.4152C25.9299 15.4152 26.6183 16.1036 26.6183 16.949C26.6183 17.7945 25.9299 18.4829 25.0844 18.4829C24.239 18.4829 23.5505 17.7945 23.5505 16.949ZM23.9065 16.9492C23.9065 17.5991 24.4342 18.1271 25.0844 18.1271C25.7344 18.1271 26.2623 17.5992 26.2623 16.9492C26.2623 16.2993 25.7344 15.7713 25.0844 15.7713C24.4345 15.7713 23.9065 16.2993 23.9065 16.9492Z" fill="#C3D4C2" stroke="#E6E7E1"/>
<path d="M13.3811 16.949C13.3811 16.1036 14.0695 15.4152 14.915 15.4152C15.7605 15.4152 16.4489 16.1036 16.4489 16.949C16.4489 17.7945 15.7605 18.4829 14.915 18.4829C14.0695 18.4829 13.3811 17.7945 13.3811 16.949ZM13.7371 16.9492C13.7371 17.5992 14.265 18.1271 14.915 18.1271C15.565 18.1271 16.0929 17.5992 16.0929 16.9492C16.0929 16.2993 15.565 15.7713 14.915 15.7713C14.265 15.7713 13.7371 16.2993 13.7371 16.9492Z" fill="#C3D4C2" stroke="#E6E7E1"/>
<path d="M24.9065 17.8883V17.7871L24.8672 17.6939C24.8594 17.6755 24.8543 17.6533 24.8543 17.6269C24.8543 17.5289 24.9341 17.4491 25.0322 17.4491H25.0844C25.1823 17.4491 25.2623 17.5289 25.2623 17.6271V21.3559C25.2623 24.2573 22.9011 26.6185 19.9997 26.6185C17.0983 26.6185 14.7371 24.2573 14.7371 21.3559V17.6271C14.7371 17.5291 14.8169 17.4492 14.915 17.4492C15.013 17.4492 15.0929 17.5291 15.0929 17.6271V21.3557C15.0929 24.0618 17.2936 26.2625 19.9997 26.2625C22.7058 26.2625 24.9065 24.0616 24.9065 21.3557V17.8883Z" fill="#C3D4C2" stroke="#E6E7E1"/>
</svg>
