<?xml version="1.0" standalone="no"?>
<!DOCTYPE svg PUBLIC "-//W3C//DTD SVG 20010904//EN"
 "http://www.w3.org/TR/2001/REC-SVG-20010904/DTD/svg10.dtd">
<svg version="1.0" xmlns="http://www.w3.org/2000/svg"
 width="928.000000pt" height="928.000000pt" viewBox="0 0 928.000000 928.000000"
 preserveAspectRatio="xMidYMid meet">
<metadata>
Created by potrace 1.11, written by Peter Selinger 2001-2013
</metadata>
<g transform="translate(0.000000,928.000000) scale(0.100000,-0.100000)"
fill="#000000" stroke="none">
<path d="M4395 9270 c-33 -4 -77 -6 -98 -6 -20 1 -37 -1 -37 -4 0 -3 -19 -6
-43 -8 -23 -1 -59 -4 -79 -7 -21 -3 -53 -7 -72 -9 -66 -9 -111 -17 -206 -36
-52 -11 -110 -22 -127 -25 -55 -9 -267 -64 -380 -99 -29 -9 -54 -15 -56 -14
-2 2 -11 -3 -20 -11 -10 -7 -17 -11 -17 -8 0 3 -35 -8 -77 -25 -43 -16 -85
-31 -93 -33 -16 -4 -77 -28 -125 -50 -56 -26 -90 -38 -97 -37 -5 1 -8 -3 -8
-10 0 -6 -3 -9 -6 -6 -3 3 -45 -14 -94 -38 -49 -24 -93 -44 -98 -44 -5 0 -15
-6 -21 -14 -7 -8 -24 -17 -39 -21 -15 -4 -29 -10 -32 -13 -3 -4 -25 -17 -50
-30 -25 -13 -70 -39 -100 -57 -30 -19 -62 -38 -70 -41 -8 -4 -47 -29 -87 -56
-40 -26 -76 -48 -82 -48 -5 0 -11 -4 -13 -8 -1 -5 -32 -28 -68 -52 -36 -24
-67 -46 -70 -50 -3 -4 -21 -17 -41 -31 -20 -13 -53 -38 -75 -56 -21 -18 -68
-56 -104 -85 -89 -72 -125 -104 -260 -233 -62 -59 -242 -249 -280 -295 -14
-17 -36 -43 -50 -58 -14 -15 -39 -45 -55 -67 -16 -22 -32 -42 -35 -45 -3 -3
-17 -21 -30 -40 -13 -19 -29 -39 -35 -45 -14 -13 -85 -113 -85 -120 0 -3 -11
-18 -25 -33 -14 -15 -25 -31 -25 -35 0 -5 -11 -23 -25 -41 -14 -18 -25 -38
-25 -44 0 -7 -4 -12 -8 -12 -5 0 -15 -12 -23 -27 -8 -16 -25 -44 -38 -63 -12
-19 -27 -44 -32 -55 -5 -11 -25 -47 -45 -80 -19 -33 -42 -77 -50 -97 -9 -21
-20 -38 -25 -38 -5 0 -9 -5 -9 -12 0 -6 -18 -50 -41 -97 -64 -134 -92 -199
-132 -301 -43 -112 -49 -129 -49 -137 0 -4 -5 -17 -10 -28 -10 -17 -74 -217
-83 -255 -2 -8 -4 -15 -5 -15 -1 0 -3 -7 -5 -15 -1 -8 -11 -44 -20 -80 -20
-77 -20 -78 -40 -170 -8 -39 -15 -68 -19 -87 -2 -10 -7 -38 -11 -63 -4 -25 -9
-54 -11 -65 -11 -52 -17 -94 -29 -200 -2 -22 -6 -58 -9 -79 -28 -209 -28 -758
0 -976 3 -25 8 -61 10 -80 3 -19 6 -51 8 -70 2 -19 9 -64 15 -100 7 -36 14
-74 16 -85 8 -44 38 -184 51 -240 8 -33 17 -71 20 -84 3 -14 7 -29 10 -33 3
-5 8 -24 11 -41 8 -49 109 -347 165 -487 59 -146 196 -428 268 -550 27 -47 55
-96 62 -110 7 -14 21 -34 30 -44 10 -11 18 -24 18 -28 0 -5 5 -14 11 -21 5 -7
20 -27 32 -46 80 -126 144 -215 184 -257 7 -7 13 -15 13 -19 0 -4 6 -12 12
-19 7 -7 24 -28 38 -46 14 -18 32 -40 40 -50 8 -10 38 -44 65 -76 139 -162
348 -371 491 -489 26 -22 58 -50 70 -63 13 -12 26 -22 28 -22 6 0 47 -33 78
-63 10 -9 20 -17 22 -17 3 0 34 -21 69 -47 101 -75 117 -87 145 -103 14 -8 35
-23 46 -32 11 -10 32 -24 48 -30 15 -7 28 -16 28 -20 0 -5 6 -8 13 -8 8 0 22
-9 32 -20 9 -10 20 -18 24 -17 3 1 24 -10 46 -24 40 -26 54 -34 142 -79 26
-14 50 -27 53 -30 20 -21 530 -246 530 -234 0 2 10 -2 22 -9 13 -8 43 -20 68
-27 25 -8 51 -18 59 -24 12 -9 13 -8 6 4 -8 13 -6 13 7 2 13 -11 170 -61 238
-77 8 -2 73 -17 143 -34 71 -17 139 -32 153 -33 13 -1 24 -6 24 -11 0 -4 4 -6
9 -3 5 3 32 2 60 -4 27 -5 72 -12 98 -16 26 -3 57 -8 68 -10 11 -2 39 -6 63
-9 23 -3 63 -8 90 -11 68 -8 172 -14 294 -18 58 -2 111 -7 117 -10 6 -4 11 -3
11 1 0 8 35 9 65 3 6 -1 12 -1 15 0 3 1 61 3 130 6 167 5 352 19 390 29 8 2
44 7 80 10 35 4 67 8 70 10 3 2 24 6 47 10 79 11 98 14 118 19 11 2 20 5 20 6
0 1 9 3 20 5 53 7 161 33 290 69 6 1 26 6 45 10 19 5 40 11 45 14 6 4 19 8 30
10 25 4 36 7 55 15 50 19 187 67 193 67 3 0 18 5 34 12 15 6 30 12 33 13 3 0
27 11 54 23 27 12 53 22 57 22 5 0 17 4 27 9 52 28 104 51 114 51 6 0 19 6 27
13 9 8 31 20 49 27 18 7 78 37 135 67 56 30 116 62 132 71 17 8 44 25 60 36
17 12 32 21 35 21 4 0 33 18 132 80 9 6 48 33 88 60 40 28 79 55 88 60 9 6 21
15 27 20 7 6 24 19 40 30 60 43 190 149 193 157 2 4 8 8 13 8 5 0 17 8 27 17
11 10 61 56 111 102 227 207 434 436 600 661 34 47 69 93 77 103 8 10 19 29
24 43 5 13 14 24 19 24 5 0 14 14 21 30 7 17 16 30 21 30 5 0 9 6 9 13 0 7 9
23 20 35 11 12 20 24 20 27 0 3 16 31 35 61 19 30 35 56 35 58 0 2 22 41 48
87 54 93 189 367 207 419 1 3 7 18 14 34 6 16 10 31 7 33 -5 5 -139 83 -216
125 -30 17 -62 36 -70 43 -8 7 -22 15 -30 19 -8 3 -37 20 -65 36 -27 16 -61
35 -75 42 -14 7 -27 15 -30 19 -3 3 -12 8 -20 12 -8 4 -37 20 -65 37 -27 17
-61 36 -75 43 -14 6 -27 14 -30 17 -3 3 -57 35 -120 72 -63 36 -131 75 -150
87 -19 11 -44 25 -55 31 -11 5 -38 21 -60 35 -22 14 -48 28 -57 31 -10 4 -18
11 -18 16 0 5 -4 7 -9 4 -5 -3 -14 1 -21 9 -7 8 -16 15 -20 15 -4 0 -52 27
-108 60 -55 33 -105 60 -111 60 -6 0 -11 5 -11 10 0 6 -5 10 -11 10 -6 0 -23
8 -37 18 -15 11 -52 33 -82 49 -115 63 -205 117 -208 125 -2 5 -8 6 -13 2 -5
-3 -9 0 -9 5 0 6 -4 11 -9 11 -5 0 -71 36 -147 81 -77 44 -157 91 -180 104
-78 44 -88 50 -102 63 -7 6 -18 12 -24 12 -5 0 -22 8 -36 19 -15 10 -49 31
-77 45 -27 15 -63 35 -80 45 -26 16 -228 134 -310 181 -36 20 -134 78 -155 91
-47 28 -71 39 -66 30 4 -6 2 -11 -4 -11 -6 0 -8 -4 -5 -10 3 -5 6 -78 5 -162
-1 -84 -1 -162 -1 -173 0 -11 1 -49 0 -85 0 -36 0 -72 0 -80 2 -184 2 -231 -3
-239 -4 -5 -2 -13 4 -16 8 -5 8 -11 1 -19 -6 -7 -8 -15 -5 -19 8 -7 8 -253 0
-266 -4 -5 -2 -13 4 -16 8 -5 8 -11 1 -19 -6 -7 -8 -15 -5 -19 3 -3 5 -41 5
-84 -1 -43 -2 -87 -2 -98 1 -30 0 -149 0 -160 0 -5 0 -91 1 -190 1 -245 3
-225 -17 -218 -10 3 -29 14 -43 23 -21 15 -65 40 -165 94 -11 6 -22 14 -25 17
-5 5 -74 44 -160 90 -25 13 -47 26 -50 29 -10 11 -170 100 -179 100 -5 0 -11
4 -13 8 -3 8 -32 25 -158 95 -30 17 -56 34 -58 39 -2 4 -8 8 -14 8 -5 0 -51
24 -101 54 -51 29 -109 63 -129 74 -20 12 -55 32 -77 46 -22 15 -45 26 -51 26
-5 0 -10 5 -10 10 0 6 -5 10 -12 10 -6 0 -49 23 -95 50 -46 28 -88 50 -93 50
-6 0 -10 5 -10 10 0 6 -4 10 -9 10 -11 0 -150 78 -172 97 -8 7 -23 13 -31 13
-9 0 -18 3 -20 8 -4 9 -126 82 -139 82 -5 0 -9 4 -9 8 0 4 -12 13 -27 19 -16
7 -35 17 -43 22 -14 10 -183 108 -283 165 -23 13 -98 56 -167 96 -140 81 -175
102 -222 129 -18 10 -57 32 -86 50 -29 17 -57 31 -62 31 -6 0 -10 5 -10 10 0
6 -4 10 -10 10 -5 0 -64 32 -132 71 -67 40 -138 81 -158 92 -76 42 -125 71
-130 77 -3 3 -31 19 -62 35 -32 17 -58 33 -58 36 0 3 17 14 38 25 20 10 39 21
42 24 10 10 153 90 161 90 5 0 9 5 9 10 0 6 6 10 13 10 7 0 29 11 50 25 20 14
37 22 37 18 0 -4 4 -3 8 3 6 9 236 145 327 194 17 9 49 28 72 43 24 15 45 27
47 27 3 0 172 97 226 130 20 12 280 162 305 176 11 6 55 32 98 57 43 26 83 47
88 47 5 0 9 5 9 11 0 5 5 7 10 4 6 -3 10 -1 10 4 0 6 7 11 15 11 8 0 15 4 15
8 0 4 12 13 28 19 15 7 50 26 77 43 28 17 58 33 68 37 9 3 17 9 17 14 0 5 3 8
8 7 7 -2 53 21 62 31 3 3 19 13 35 22 17 9 122 69 235 134 113 65 214 123 225
129 10 6 25 17 33 24 7 6 17 12 22 12 6 0 89 46 160 90 8 5 52 31 98 57 92 53
103 59 280 162 68 39 128 71 133 71 5 0 9 5 9 10 0 6 4 10 9 10 4 0 60 30 122
66 63 37 128 74 144 84 17 9 144 83 282 163 139 81 257 147 263 147 5 0 10 4
10 10 0 5 11 12 25 16 14 3 25 10 25 15 0 5 6 9 13 9 7 0 36 16 64 35 29 19
54 35 57 35 3 0 186 105 408 233 222 129 410 237 418 240 8 4 44 25 79 47 34
22 64 40 66 40 4 0 276 160 297 174 15 11 0 29 -122 149 -76 75 -140 137 -143
137 -2 0 -23 18 -46 40 -23 22 -86 75 -139 118 -53 42 -99 79 -102 82 -17 17
-121 90 -129 90 -5 0 -11 4 -13 8 -3 7 -125 93 -184 129 -150 93 -229 139
-299 174 -22 11 -65 33 -95 49 -30 17 -60 30 -66 30 -6 0 -17 7 -24 15 -7 9
-15 14 -17 11 -3 -2 -35 10 -71 28 -96 47 -328 139 -349 139 -7 0 -13 5 -13
10 0 6 -2 8 -6 5 -3 -3 -51 10 -106 28 -56 19 -113 37 -127 40 -14 3 -30 6
-36 8 -5 2 -23 6 -40 10 -16 4 -42 12 -56 18 -15 5 -37 11 -50 13 -22 4 -79
16 -139 30 -14 3 -34 8 -45 9 -21 4 -59 11 -140 26 -90 16 -155 24 -270 35
-38 3 -88 8 -110 11 -63 8 -603 11 -670 4z"/>
</g>
</svg>
