<svg width="147" height="63" viewBox="0 0 147 63" fill="none" xmlns="http://www.w3.org/2000/svg">
<g clip-path="url(#clip0)">
<path d="M116.453 38.828H131.219C128.885 34.248 124.115 31.0929 118.584 31.0929C111.734 31.0929 106 35.9782 104.681 42.441L120.716 51.7536H105.95C108.284 56.3845 113.053 59.5396 118.584 59.5396C125.435 59.5396 131.168 54.6543 132.488 48.1406L116.453 38.828Z" fill="#548758"/>
<path d="M88.1391 31.0929C82.6082 31.0929 77.8384 34.248 75.5043 38.8788H94.0759L73.9313 50.5323V60.8118L82.9126 63.0509V58.5218C83.3693 58.6745 85.5005 59.5396 88.1391 59.5396C95.9534 59.5396 102.347 53.1785 102.347 45.2908C102.347 37.454 96.0041 31.0929 88.1391 31.0929Z" fill="#548758"/>
<path d="M63.2755 49.2092V41.4233L70.7346 38.8788C68.4004 34.248 63.6307 31.0929 58.0998 31.0929C52.5689 31.0929 47.7991 34.248 45.465 38.8788L52.9241 41.4233V49.2092L45.465 51.8045C47.7991 56.4354 52.5689 59.5905 58.0998 59.5905C63.6307 59.5905 68.4004 56.4354 70.7346 51.8045L63.2755 49.2092Z" fill="#548758"/>
<path d="M32.4242 44.0186H42.7249C42.116 36.7415 36.0269 31.0929 28.6186 31.0929C21.2102 31.0929 15.1212 36.7924 14.5123 44.0186H24.7114L18.3179 55.1123C20.9058 57.8603 24.5592 59.5396 28.6186 59.5396C32.6272 59.5396 36.2807 57.8603 38.8685 55.1632L32.4242 44.0186Z" fill="#548758"/>
<path d="M126.297 12.0606V26.8691C121.73 24.5283 118.584 19.7447 118.584 14.1979C118.584 7.32795 123.456 1.57754 129.9 0.25444L139.186 16.3352V1.52665C143.803 3.86753 146.949 8.65105 146.949 14.1979C146.949 21.0678 142.078 26.8183 135.583 28.1414L126.297 12.0606Z" fill="#548758"/>
<path d="M99.962 20.7116L111.125 14.2488L99.962 7.78594H115.997C113.662 3.15509 108.893 0 103.362 0C95.5474 0 89.1539 6.36107 89.1539 14.2488C89.1539 22.0856 95.4967 28.4976 103.362 28.4976C108.893 28.4976 113.662 25.3425 115.997 20.7116H99.962Z" fill="#548758"/>
<path d="M70.6838 20.7116L81.8471 14.2488L70.6838 7.78594H86.7183C84.3842 3.15509 79.6144 0 74.0835 0C66.2692 0 59.8757 6.36107 59.8757 14.2488C59.8757 22.0856 66.2185 28.4976 74.0835 28.4976C79.6144 28.4976 84.3842 25.3425 86.7183 20.7116H70.6838Z" fill="#548758"/>
<path d="M18.0642 14.2488V20.2027L7.76355 14.2488L24.5592 4.52908C21.9713 1.73021 18.2672 0 14.2078 0C6.34277 0 0 6.36107 0 14.2488C0 22.0856 6.34277 28.4976 14.2078 28.4976C20.1446 28.4976 25.2188 24.8336 27.35 19.643L18.0642 14.2488Z" fill="#548758"/>
<path d="M36.7373 8.4475L48.2558 28.3958H58.7086L55.0045 21.9838C56.476 19.7447 57.2879 17.0985 57.2879 14.1979C57.2879 6.36107 50.9451 -0.0508881 43.0801 -0.0508881C35.2658 -0.0508881 28.8723 6.31018 28.8723 14.1979C28.8723 19.7447 32.0183 24.5283 36.6358 26.92V8.4475H36.7373Z" fill="#548758"/>
</g>
<defs>
<clipPath id="clip0">
<rect width="147" height="63" fill="white"/>
</clipPath>
</defs>
</svg>
